<svg aria-roledescription="flowchart-v2" role="graphics-document document" viewBox="-8 -8 1056.78515625 332" height="100%" xmlns="http://www.w3.org/2000/svg" width="1056.78515625" id="graph-div" style="max-width: 100%;" xmlns:xlink="http://www.w3.org/1999/xlink"><style>@import url("https://cdnjs.cloudflare.com/ajax/libs/font-awesome/6.4.0/css/all.min.css");'</style><style>#graph-div{font-family:"trebuchet ms",verdana,arial,sans-serif;font-size:16px;fill:#333;}#graph-div .error-icon{fill:#552222;}#graph-div .error-text{fill:#552222;stroke:#552222;}#graph-div .edge-thickness-normal{stroke-width:2px;}#graph-div .edge-thickness-thick{stroke-width:3.5px;}#graph-div .edge-pattern-solid{stroke-dasharray:0;}#graph-div .edge-pattern-dashed{stroke-dasharray:3;}#graph-div .edge-pattern-dotted{stroke-dasharray:2;}#graph-div .marker{fill:#333333;stroke:#333333;}#graph-div .marker.cross{stroke:#333333;}#graph-div svg{font-family:"trebuchet ms",verdana,arial,sans-serif;font-size:16px;}#graph-div .label{font-family:"trebuchet ms",verdana,arial,sans-serif;color:#333;}#graph-div .cluster-label text{fill:#333;}#graph-div .cluster-label span,#graph-div p{color:#333;}#graph-div .label text,#graph-div span,#graph-div p{fill:#333;color:#333;}#graph-div .node rect,#graph-div .node circle,#graph-div .node ellipse,#graph-div .node polygon,#graph-div .node path{fill:#ECECFF;stroke:#9370DB;stroke-width:1px;}#graph-div .flowchart-label text{text-anchor:middle;}#graph-div .node .label{text-align:center;}#graph-div .node.clickable{cursor:pointer;}#graph-div .arrowheadPath{fill:#333333;}#graph-div .edgePath .path{stroke:#333333;stroke-width:2.0px;}#graph-div .flowchart-link{stroke:#333333;fill:none;}#graph-div .edgeLabel{background-color:#e8e8e8;text-align:center;}#graph-div .edgeLabel rect{opacity:0.5;background-color:#e8e8e8;fill:#e8e8e8;}#graph-div .labelBkg{background-color:rgba(232, 232, 232, 0.5);}#graph-div .cluster rect{fill:#ffffde;stroke:#aaaa33;stroke-width:1px;}#graph-div .cluster text{fill:#333;}#graph-div .cluster span,#graph-div p{color:#333;}#graph-div div.mermaidTooltip{position:absolute;text-align:center;max-width:200px;padding:2px;font-family:"trebuchet ms",verdana,arial,sans-serif;font-size:12px;background:hsl(80, 100%, 96.2745098039%);border:1px solid #aaaa33;border-radius:2px;pointer-events:none;z-index:100;}#graph-div .flowchartTitleText{text-anchor:middle;font-size:18px;fill:#333;}#graph-div :root{--mermaid-font-family:"trebuchet ms",verdana,arial,sans-serif;}</style><g><marker orient="auto" markerHeight="12" markerWidth="12" markerUnits="userSpaceOnUse" refY="5" refX="10" viewBox="0 0 10 10" class="marker flowchart" id="flowchart-pointEnd"><path style="stroke-width: 1; stroke-dasharray: 1, 0;" class="arrowMarkerPath" d="M 0 0 L 10 5 L 0 10 z"></path></marker><marker orient="auto" markerHeight="12" markerWidth="12" markerUnits="userSpaceOnUse" refY="5" refX="0" viewBox="0 0 10 10" class="marker flowchart" id="flowchart-pointStart"><path style="stroke-width: 1; stroke-dasharray: 1, 0;" class="arrowMarkerPath" d="M 0 5 L 10 10 L 10 0 z"></path></marker><marker orient="auto" markerHeight="11" markerWidth="11" markerUnits="userSpaceOnUse" refY="5" refX="11" viewBox="0 0 10 10" class="marker flowchart" id="flowchart-circleEnd"><circle style="stroke-width: 1; stroke-dasharray: 1, 0;" class="arrowMarkerPath" r="5" cy="5" cx="5"></circle></marker><marker orient="auto" markerHeight="11" markerWidth="11" markerUnits="userSpaceOnUse" refY="5" refX="-1" viewBox="0 0 10 10" class="marker flowchart" id="flowchart-circleStart"><circle style="stroke-width: 1; stroke-dasharray: 1, 0;" class="arrowMarkerPath" r="5" cy="5" cx="5"></circle></marker><marker orient="auto" markerHeight="11" markerWidth="11" markerUnits="userSpaceOnUse" refY="5.2" refX="12" viewBox="0 0 11 11" class="marker cross flowchart" id="flowchart-crossEnd"><path style="stroke-width: 2; stroke-dasharray: 1, 0;" class="arrowMarkerPath" d="M 1,1 l 9,9 M 10,1 l -9,9"></path></marker><marker orient="auto" markerHeight="11" markerWidth="11" markerUnits="userSpaceOnUse" refY="5.2" refX="-1" viewBox="0 0 11 11" class="marker cross flowchart" id="flowchart-crossStart"><path style="stroke-width: 2; stroke-dasharray: 1, 0;" class="arrowMarkerPath" d="M 1,1 l 9,9 M 10,1 l -9,9"></path></marker><g class="root"><g class="clusters"></g><g class="edgePaths"><path marker-end="url(#flowchart-pointEnd)" style="fill:none;" class="edge-thickness-normal edge-pattern-solid flowchart-link LS-main LE-Held-Karp" id="L-main-Held-Karp-0" d="M593.2578125,21.975078231957756L564.1360677083334,28.062565193298127C535.0143229166666,34.1500521546385,476.7708333333333,46.32502607731925,447.6490885416667,57.912513038659625C418.52734375,69.5,418.52734375,80.5,418.52734375,86L418.52734375,91.5"></path><path marker-end="url(#flowchart-pointEnd)" style="fill:none;" class="edge-thickness-normal edge-pattern-solid flowchart-link LS-main LE-calculate_nodes" id="L-main-calculate_nodes-0" d="M593.2578125,19.05334649572797L521.9114583333334,25.627788746439972C450.5651041666667,32.20223099715198,307.8723958333333,45.351115498575986,236.52604166666666,57.425557749288C165.1796875,69.5,165.1796875,80.5,165.1796875,86L165.1796875,91.5"></path><path marker-end="url(#flowchart-pointEnd)" style="fill:none;" class="edge-thickness-normal edge-pattern-solid flowchart-link LS-main LE-edge_lookup_matrix" id="L-main-edge_lookup_matrix-0" d="M618.25390625,33.5L618.25390625,37.666666666666664C618.25390625,41.833333333333336,618.25390625,50.166666666666664,618.25390625,58.5C618.25390625,66.83333333333333,618.25390625,75.16666666666667,618.25390625,79.33333333333333L618.25390625,83.5"></path><path marker-end="url(#flowchart-pointEnd)" style="fill:none;" class="edge-thickness-normal edge-pattern-solid flowchart-link LS-calculate_nodes LE-node_calc" id="L-calculate_nodes-node_calc-0" d="M165.1796875,125L165.1796875,130.5C165.1796875,136,165.1796875,147,165.1796875,156.66666666666666C165.1796875,166.33333333333334,165.1796875,174.66666666666666,165.1796875,178.83333333333334L165.1796875,183"></path><path marker-end="url(#flowchart-pointEnd)" style="fill:none;" class="edge-thickness-normal edge-pattern-solid flowchart-link LS-main LE-visit_set" id="L-main-visit_set-0" d="M643.25,22.546195652173914L669.091796875,28.538496376811594C694.93359375,34.530797101449274,746.6171875,46.51539855072463,772.458984375,56.67436594202899C798.30078125,66.83333333333333,798.30078125,75.16666666666667,798.30078125,79.33333333333333L798.30078125,83.5"></path><path marker-end="url(#flowchart-pointEnd)" style="fill:none;" class="edge-thickness-normal edge-pattern-solid flowchart-link LS-main LE-people_at_nodes" id="L-main-people_at_nodes-0" d="M643.25,19.74827448823846L697.0944010416666,26.206895406865385C750.9388020833334,32.66551632549231,858.6276041666666,45.58275816274615,912.4720052083334,56.208045748039744C966.31640625,66.83333333333333,966.31640625,75.16666666666667,966.31640625,79.33333333333333L966.31640625,83.5"></path><path marker-end="url(#flowchart-pointEnd)" style="fill:none;" class="edge-thickness-normal edge-pattern-solid flowchart-link LS-Held-Karp LE-dijkstras" id="L-Held-Karp-dijkstras-0" d="M418.52734375,125L418.52734375,130.5C418.52734375,136,418.52734375,147,418.52734375,158C418.52734375,169,418.52734375,180,418.52734375,185.5L418.52734375,191"></path><path marker-end="url(#flowchart-pointEnd)" style="fill:none;" class="edge-thickness-normal edge-pattern-solid flowchart-link LS-dijkstras LE-dist" id="L-dijkstras-dist-0" d="M418.52734375,224.5L418.52734375,230C418.52734375,235.5,418.52734375,246.5,418.52734375,256.1666666666667C418.52734375,265.8333333333333,418.52734375,274.1666666666667,418.52734375,278.3333333333333L418.52734375,282.5"></path><path marker-end="url(#flowchart-pointEnd)" style="fill:none;" class="edge-thickness-normal edge-pattern-solid flowchart-link LS-Held-Karp LE-Held-Karp" id="L-Held-Karp-Held-Karp-0" d="M461.75390625,97.37190422160491L465.6427951388889,96.39325351800409C469.53168402777777,95.41460281440327,477.3094618055555,93.45730140720163,482.1705729166666,92.4786507036008C487.03168402777777,91.5,488.97612847222223,91.5,490.9205729166667,94.29166666666667C492.86501736111114,97.08333333333333,494.8094618055556,102.66666666666667,494.8094618055555,108.25C494.8094618055556,113.83333333333333,492.86501736111114,119.41666666666667,490.92057291666674,122.20833333333333C488.97612847222223,125,487.03168402777777,125,482.1705729166667,124.02134929639918C477.3094618055555,123.04269859279837,469.53168402777777,121.08539718559673,465.6427951388889,120.10674648199591L461.75390625,119.12809577839509"></path></g><g class="edgeLabels"><g class="edgeLabel"><g transform="translate(0, 0)" class="label"><rect height="0" width="0" ry="0" rx="0"></rect><text style=""><tspan class="row" x="0" dy="1em" xml:space="preserve"></tspan></text></g></g><g class="edgeLabel"><g transform="translate(0, 0)" class="label"><rect height="0" width="0" ry="0" rx="0"></rect><text style=""><tspan class="row" x="0" dy="1em" xml:space="preserve"></tspan></text></g></g><g class="edgeLabel"><g transform="translate(0, 0)" class="label"><rect height="0" width="0" ry="0" rx="0"></rect><text style=""><tspan class="row" x="0" dy="1em" xml:space="preserve"></tspan></text></g></g><g class="edgeLabel"><g transform="translate(0, 0)" class="label"><rect height="0" width="0" ry="0" rx="0"></rect><text style=""><tspan class="row" x="0" dy="1em" xml:space="preserve"></tspan></text></g></g><g class="edgeLabel"><g transform="translate(0, 0)" class="label"><rect height="0" width="0" ry="0" rx="0"></rect><text style=""><tspan class="row" x="0" dy="1em" xml:space="preserve"></tspan></text></g></g><g class="edgeLabel"><g transform="translate(0, 0)" class="label"><rect height="0" width="0" ry="0" rx="0"></rect><text style=""><tspan class="row" x="0" dy="1em" xml:space="preserve"></tspan></text></g></g><g class="edgeLabel"><g transform="translate(0, 0)" class="label"><rect height="0" width="0" ry="0" rx="0"></rect><text style=""><tspan class="row" x="0" dy="1em" xml:space="preserve"></tspan></text></g></g><g class="edgeLabel"><g transform="translate(0, 0)" class="label"><rect height="0" width="0" ry="0" rx="0"></rect><text style=""><tspan class="row" x="0" dy="1em" xml:space="preserve"></tspan></text></g></g><g class="edgeLabel"><g transform="translate(0, 0)" class="label"><rect height="0" width="0" ry="0" rx="0"></rect><text style=""><tspan class="row" x="0" dy="1em" xml:space="preserve"></tspan></text></g></g></g><g class="nodes"><g transform="translate(618.25390625, 16.75)" id="flowchart-main-1052" class="node default default flowchart-label"><rect height="33.5" width="49.9921875" y="-16.75" x="-24.99609375" ry="0" rx="0" style="" class="basic label-container"></rect><g transform="translate(0, -9.25)" style="" class="label"><rect></rect><text style=""><tspan class="row" x="0" dy="1em" xml:space="preserve">main</tspan></text></g></g><g transform="translate(418.52734375, 108.25)" id="flowchart-Held-Karp-1053" class="node default default flowchart-label"><rect height="33.5" width="86.453125" y="-16.75" x="-43.2265625" ry="0" rx="0" style="" class="basic label-container"></rect><g transform="translate(0, -9.25)" style="" class="label"><rect></rect><text style=""><tspan class="row" x="0" dy="1em" xml:space="preserve">Held-Karp</tspan></text></g></g><g transform="translate(165.1796875, 108.25)" id="flowchart-calculate_nodes-1055" class="node default default flowchart-label"><rect height="33.5" width="130.7421875" y="-16.75" x="-65.37109375" ry="0" rx="0" style="" class="basic label-container"></rect><g transform="translate(0, -9.25)" style="" class="label"><rect></rect><text style=""><tspan class="row" x="0" dy="1em" xml:space="preserve">calculate_nodes</tspan></text></g></g><g transform="translate(618.25390625, 108.25)" id="flowchart-edge_lookup_matrix-1057" class="node default default flowchart-label"><rect height="49.5" width="173" y="-24.75" x="-86.5" ry="24.75" rx="24.75" style=""></rect><g transform="translate(0, -17.25)" style="" class="label"><rect></rect><text style=""><tspan class="row" x="0" dy="1em" xml:space="preserve">edge_lookup_matrix</tspan><tspan class="row" x="0" dy="1em" xml:space="preserve">O(2R)</tspan></text></g></g><g transform="translate(165.1796875, 207.75)" id="flowchart-node_calc-1059" class="node default default flowchart-label"><rect height="49.5" width="330.359375" y="-24.75" x="-165.1796875" ry="24.75" rx="24.75" style=""></rect><g transform="translate(0, -17.25)" style="" class="label"><rect></rect><text style=""><tspan class="row" x="0" dy="1em" xml:space="preserve">Dict: Friends to Distances &amp; Closest Nodes</tspan><tspan class="row" x="0" dy="1em" xml:space="preserve">O(FL)</tspan></text></g></g><g transform="translate(798.30078125, 108.25)" id="flowchart-visit_set-1061" class="node default default flowchart-label"><rect height="49.5" width="87.09375" y="-24.75" x="-43.546875" ry="24.75" rx="24.75" style=""></rect><g transform="translate(0, -17.25)" style="" class="label"><rect></rect><text style=""><tspan class="row" x="0" dy="1em" xml:space="preserve">visit_set</tspan><tspan class="row" x="0" dy="1em" xml:space="preserve">O(F)</tspan></text></g></g><g transform="translate(966.31640625, 108.25)" id="flowchart-people_at_nodes-1063" class="node default default flowchart-label"><rect height="49.5" width="148.9375" y="-24.75" x="-74.46875" ry="24.75" rx="24.75" style=""></rect><g transform="translate(0, -17.25)" style="" class="label"><rect></rect><text style=""><tspan class="row" x="0" dy="1em" xml:space="preserve">people_at_nodes</tspan><tspan class="row" x="0" dy="1em" xml:space="preserve">O(F)</tspan></text></g></g><g transform="translate(418.52734375, 207.75)" id="flowchart-dijkstras-1065" class="node default default flowchart-label"><rect height="33.5" width="76.3359375" y="-16.75" x="-38.16796875" ry="0" rx="0" style="" class="basic label-container"></rect><g transform="translate(0, -9.25)" style="" class="label"><rect></rect><text style=""><tspan class="row" x="0" dy="1em" xml:space="preserve">dijkstras</tspan></text></g></g><g transform="translate(418.52734375, 299.25)" id="flowchart-dist-1066" class="node default default flowchart-label"><rect height="33.5" width="41.296875" y="-16.75" x="-20.6484375" ry="0" rx="0" style="" class="basic label-container"></rect><g transform="translate(0, -9.25)" style="" class="label"><rect></rect><text style=""><tspan class="row" x="0" dy="1em" xml:space="preserve">dist</tspan></text></g></g></g></g></g></svg>