<svg aria-roledescription="flowchart-v2" role="graphics-document document" viewBox="-8 -8 337.1484375 267.953125" height="100%" xmlns="http://www.w3.org/2000/svg" width="337.1484375" id="graph-div" style="max-width: 100%;" xmlns:xlink="http://www.w3.org/1999/xlink"><style>@import url("https://cdnjs.cloudflare.com/ajax/libs/font-awesome/6.4.0/css/all.min.css");'</style><style>#graph-div{font-family:"trebuchet ms",verdana,arial,sans-serif;font-size:16px;fill:#333;}#graph-div .error-icon{fill:#552222;}#graph-div .error-text{fill:#552222;stroke:#552222;}#graph-div .edge-thickness-normal{stroke-width:2px;}#graph-div .edge-thickness-thick{stroke-width:3.5px;}#graph-div .edge-pattern-solid{stroke-dasharray:0;}#graph-div .edge-pattern-dashed{stroke-dasharray:3;}#graph-div .edge-pattern-dotted{stroke-dasharray:2;}#graph-div .marker{fill:#333333;stroke:#333333;}#graph-div .marker.cross{stroke:#333333;}#graph-div svg{font-family:"trebuchet ms",verdana,arial,sans-serif;font-size:16px;}#graph-div .label{font-family:"trebuchet ms",verdana,arial,sans-serif;color:#333;}#graph-div .cluster-label text{fill:#333;}#graph-div .cluster-label span,#graph-div p{color:#333;}#graph-div .label text,#graph-div span,#graph-div p{fill:#333;color:#333;}#graph-div .node rect,#graph-div .node circle,#graph-div .node ellipse,#graph-div .node polygon,#graph-div .node path{fill:#ECECFF;stroke:#9370DB;stroke-width:1px;}#graph-div .flowchart-label text{text-anchor:middle;}#graph-div .node .label{text-align:center;}#graph-div .node.clickable{cursor:pointer;}#graph-div .arrowheadPath{fill:#333333;}#graph-div .edgePath .path{stroke:#333333;stroke-width:2.0px;}#graph-div .flowchart-link{stroke:#333333;fill:none;}#graph-div .edgeLabel{background-color:#e8e8e8;text-align:center;}#graph-div .edgeLabel rect{opacity:0.5;background-color:#e8e8e8;fill:#e8e8e8;}#graph-div .labelBkg{background-color:rgba(232, 232, 232, 0.5);}#graph-div .cluster rect{fill:#ffffde;stroke:#aaaa33;stroke-width:1px;}#graph-div .cluster text{fill:#333;}#graph-div .cluster span,#graph-div p{color:#333;}#graph-div div.mermaidTooltip{position:absolute;text-align:center;max-width:200px;padding:2px;font-family:"trebuchet ms",verdana,arial,sans-serif;font-size:12px;background:hsl(80, 100%, 96.2745098039%);border:1px solid #aaaa33;border-radius:2px;pointer-events:none;z-index:100;}#graph-div .flowchartTitleText{text-anchor:middle;font-size:18px;fill:#333;}#graph-div :root{--mermaid-font-family:"trebuchet ms",verdana,arial,sans-serif;}</style><g><marker orient="auto" markerHeight="12" markerWidth="12" markerUnits="userSpaceOnUse" refY="5" refX="10" viewBox="0 0 10 10" class="marker flowchart" id="flowchart-pointEnd"><path style="stroke-width: 1; stroke-dasharray: 1, 0;" class="arrowMarkerPath" d="M 0 0 L 10 5 L 0 10 z"></path></marker><marker orient="auto" markerHeight="12" markerWidth="12" markerUnits="userSpaceOnUse" refY="5" refX="0" viewBox="0 0 10 10" class="marker flowchart" id="flowchart-pointStart"><path style="stroke-width: 1; stroke-dasharray: 1, 0;" class="arrowMarkerPath" d="M 0 5 L 10 10 L 10 0 z"></path></marker><marker orient="auto" markerHeight="11" markerWidth="11" markerUnits="userSpaceOnUse" refY="5" refX="11" viewBox="0 0 10 10" class="marker flowchart" id="flowchart-circleEnd"><circle style="stroke-width: 1; stroke-dasharray: 1, 0;" class="arrowMarkerPath" r="5" cy="5" cx="5"></circle></marker><marker orient="auto" markerHeight="11" markerWidth="11" markerUnits="userSpaceOnUse" refY="5" refX="-1" viewBox="0 0 10 10" class="marker flowchart" id="flowchart-circleStart"><circle style="stroke-width: 1; stroke-dasharray: 1, 0;" class="arrowMarkerPath" r="5" cy="5" cx="5"></circle></marker><marker orient="auto" markerHeight="11" markerWidth="11" markerUnits="userSpaceOnUse" refY="5.2" refX="12" viewBox="0 0 11 11" class="marker cross flowchart" id="flowchart-crossEnd"><path style="stroke-width: 2; stroke-dasharray: 1, 0;" class="arrowMarkerPath" d="M 1,1 l 9,9 M 10,1 l -9,9"></path></marker><marker orient="auto" markerHeight="11" markerWidth="11" markerUnits="userSpaceOnUse" refY="5.2" refX="-1" viewBox="0 0 11 11" class="marker cross flowchart" id="flowchart-crossStart"><path style="stroke-width: 2; stroke-dasharray: 1, 0;" class="arrowMarkerPath" d="M 1,1 l 9,9 M 10,1 l -9,9"></path></marker><g class="root"><g class="clusters"></g><g class="edgePaths"><path marker-end="url(#flowchart-pointEnd)" style="fill:none;" class="edge-thickness-normal edge-pattern-solid flowchart-link LS-A LE-B" id="L-A-B-0" d="M150.1136132427588,16.925615253620602L139.62527666063232,22.16978354468384C129.13694007850586,27.41395183574707,108.16026691425293,37.902288417873535,97.67193033212646,47.31312337560343C87.18359375,56.723958333333336,87.18359375,65.05729166666667,87.18359375,69.22395833333333L87.18359375,73.390625"></path><path marker-end="url(#flowchart-pointEnd)" style="fill:none;" class="edge-thickness-normal edge-pattern-solid flowchart-link LS-A LE-C" id="L-A-C-0" d="M171.68997588187514,15.331282502327205L188.53461531822927,20.841172918606006C205.37925475458346,26.351063334884802,239.0685336272917,37.37084416744241,255.91317306364587,47.04740125038787C272.7578125,56.723958333333336,272.7578125,65.05729166666667,272.7578125,69.22395833333333L272.7578125,73.390625"></path><path marker-end="url(#flowchart-pointEnd)" style="fill:none;" class="edge-thickness-normal edge-pattern-solid flowchart-link LS-B LE-D" id="L-B-D-0" d="M78.68723778821112,93.12286911867332L73.63780232350926,97.89926593222776C68.58836685880742,102.67566274578222,58.48949592940371,112.2284563728911,53.44006046470185,121.17151985311222C48.390625,130.11458333333334,48.390625,138.44791666666666,48.390625,142.61458333333334L48.390625,146.78125"></path><path marker-end="url(#flowchart-pointEnd)" style="fill:none;" class="edge-thickness-normal edge-pattern-solid flowchart-link LS-B LE-E" id="L-B-E-0" d="M97.70200266336548,90.19900002689032L108.53031471947122,95.46270835574194C119.35862677557698,100.72641668459353,141.01525088778848,111.25383334229677,151.84356294389423,120.68420833781505C162.671875,130.11458333333334,162.671875,138.44791666666666,162.671875,142.61458333333334L162.671875,146.78125"></path><path marker-end="url(#flowchart-pointEnd)" style="fill:none;" class="edge-thickness-normal edge-pattern-solid flowchart-link LS-C LE-F" id="L-C-F-0" d="M264.4879777231542,93.3557722768458L259.7503981026285,98.0933518973715C255.0128184821028,102.83093151789721,245.53765924105141,112.3060907589486,240.8000796205257,121.21033704614096C236.0625,130.11458333333334,236.0625,138.44791666666666,236.0625,142.61458333333334L236.0625,146.78125"></path><path marker-end="url(#flowchart-pointEnd)" style="fill:none;" class="edge-thickness-normal edge-pattern-solid flowchart-link LS-C LE-G" id="L-C-G-0" d="M281.0276472768458,93.3557722768458L285.7652268973715,98.0933518973715C290.5028065178972,102.83093151789721,299.9779657589486,112.3060907589486,304.7155453794743,121.21033704614096C309.453125,130.11458333333334,309.453125,138.44791666666666,309.453125,142.61458333333334L309.453125,146.78125"></path><path marker-end="url(#flowchart-pointEnd)" style="fill:none;" class="edge-thickness-normal edge-pattern-solid flowchart-link LS-D LE-H" id="L-D-H-0" d="M40.1207902231542,166.74639727684578L35.3832106026285,171.4839768973715C30.6456309821028,176.22155651789717,21.1704717410514,185.69671575894859,16.4328921205257,195.30018079614095C11.6953125,204.90364583333334,11.6953125,214.63541666666666,11.6953125,219.50130208333334L11.6953125,224.3671875"></path><path marker-end="url(#flowchart-pointEnd)" style="fill:none;" class="edge-thickness-normal edge-pattern-solid flowchart-link LS-D LE-I" id="L-D-I-0" d="M56.6604597768458,166.74639727684578L61.3980393973715,171.4839768973715C66.1356190178972,176.22155651789717,75.6107782589486,185.69671575894859,80.3483578794743,195.30018079614095C85.0859375,204.90364583333334,85.0859375,214.63541666666666,85.0859375,219.50130208333334L85.0859375,224.3671875"></path><path marker-end="url(#flowchart-pointEnd)" style="fill:none;" class="edge-thickness-normal edge-pattern-solid flowchart-link LS-E LE-J" id="L-E-J-0" d="M162.671875,170.171875L162.671875,174.33854166666666C162.671875,178.50520833333334,162.671875,186.83854166666666,162.671875,195.171875C162.671875,203.50520833333334,162.671875,211.83854166666666,162.671875,216.00520833333334L162.671875,220.171875"></path></g><g class="edgeLabels"><g class="edgeLabel"><g transform="translate(0, 0)" class="label"><rect height="0" width="0" ry="0" rx="0"></rect><text style=""><tspan class="row" x="0" dy="1em" xml:space="preserve"></tspan></text></g></g><g class="edgeLabel"><g transform="translate(0, 0)" class="label"><rect height="0" width="0" ry="0" rx="0"></rect><text style=""><tspan class="row" x="0" dy="1em" xml:space="preserve"></tspan></text></g></g><g class="edgeLabel"><g transform="translate(0, 0)" class="label"><rect height="0" width="0" ry="0" rx="0"></rect><text style=""><tspan class="row" x="0" dy="1em" xml:space="preserve"></tspan></text></g></g><g class="edgeLabel"><g transform="translate(0, 0)" class="label"><rect height="0" width="0" ry="0" rx="0"></rect><text style=""><tspan class="row" x="0" dy="1em" xml:space="preserve"></tspan></text></g></g><g class="edgeLabel"><g transform="translate(0, 0)" class="label"><rect height="0" width="0" ry="0" rx="0"></rect><text style=""><tspan class="row" x="0" dy="1em" xml:space="preserve"></tspan></text></g></g><g class="edgeLabel"><g transform="translate(0, 0)" class="label"><rect height="0" width="0" ry="0" rx="0"></rect><text style=""><tspan class="row" x="0" dy="1em" xml:space="preserve"></tspan></text></g></g><g class="edgeLabel"><g transform="translate(0, 0)" class="label"><rect height="0" width="0" ry="0" rx="0"></rect><text style=""><tspan class="row" x="0" dy="1em" xml:space="preserve"></tspan></text></g></g><g class="edgeLabel"><g transform="translate(0, 0)" class="label"><rect height="0" width="0" ry="0" rx="0"></rect><text style=""><tspan class="row" x="0" dy="1em" xml:space="preserve"></tspan></text></g></g><g class="edgeLabel"><g transform="translate(0, 0)" class="label"><rect height="0" width="0" ry="0" rx="0"></rect><text style=""><tspan class="row" x="0" dy="1em" xml:space="preserve"></tspan></text></g></g></g><g class="nodes"><g transform="translate(160.57421875, 11.6953125)" id="flowchart-A-902" class="node default default flowchart-label"><circle height="33.5" width="23.390625" r="11.6953125" ry="0" rx="0" style=""></circle><g transform="translate(0, -9.25)" style="" class="label"><rect></rect><text style=""><tspan class="row" x="0" dy="1em" xml:space="preserve">1</tspan></text></g></g><g transform="translate(87.18359375, 85.0859375)" id="flowchart-B-903" class="node default default flowchart-label"><circle height="33.5" width="23.390625" r="11.6953125" ry="0" rx="0" style=""></circle><g transform="translate(0, -9.25)" style="" class="label"><rect></rect><text style=""><tspan class="row" x="0" dy="1em" xml:space="preserve">2</tspan></text></g></g><g transform="translate(272.7578125, 85.0859375)" id="flowchart-C-905" class="node default default flowchart-label"><circle height="33.5" width="23.390625" r="11.6953125" ry="0" rx="0" style=""></circle><g transform="translate(0, -9.25)" style="" class="label"><rect></rect><text style=""><tspan class="row" x="0" dy="1em" xml:space="preserve">3</tspan></text></g></g><g transform="translate(48.390625, 158.4765625)" id="flowchart-D-907" class="node default default flowchart-label"><circle height="33.5" width="23.390625" r="11.6953125" ry="0" rx="0" style=""></circle><g transform="translate(0, -9.25)" style="" class="label"><rect></rect><text style=""><tspan class="row" x="0" dy="1em" xml:space="preserve">4</tspan></text></g></g><g transform="translate(162.671875, 158.4765625)" id="flowchart-E-909" class="node default default flowchart-label"><circle height="33.5" width="23.390625" r="11.6953125" ry="0" rx="0" style=""></circle><g transform="translate(0, -9.25)" style="" class="label"><rect></rect><text style=""><tspan class="row" x="0" dy="1em" xml:space="preserve">5</tspan></text></g></g><g transform="translate(236.0625, 158.4765625)" id="flowchart-F-911" class="node default default flowchart-label"><circle height="33.5" width="23.390625" r="11.6953125" ry="0" rx="0" style=""></circle><g transform="translate(0, -9.25)" style="" class="label"><rect></rect><text style=""><tspan class="row" x="0" dy="1em" xml:space="preserve">6</tspan></text></g></g><g transform="translate(309.453125, 158.4765625)" id="flowchart-G-913" class="node default default flowchart-label"><circle height="33.5" width="23.390625" r="11.6953125" ry="0" rx="0" style=""></circle><g transform="translate(0, -9.25)" style="" class="label"><rect></rect><text style=""><tspan class="row" x="0" dy="1em" xml:space="preserve">7</tspan></text></g></g><g transform="translate(11.6953125, 236.0625)" id="flowchart-H-915" class="node default default flowchart-label"><circle height="33.5" width="23.390625" r="11.6953125" ry="0" rx="0" style=""></circle><g transform="translate(0, -9.25)" style="" class="label"><rect></rect><text style=""><tspan class="row" x="0" dy="1em" xml:space="preserve">8</tspan></text></g></g><g transform="translate(85.0859375, 236.0625)" id="flowchart-I-917" class="node default default flowchart-label"><circle height="33.5" width="23.390625" r="11.6953125" ry="0" rx="0" style=""></circle><g transform="translate(0, -9.25)" style="" class="label"><rect></rect><text style=""><tspan class="row" x="0" dy="1em" xml:space="preserve">9</tspan></text></g></g><g transform="translate(162.671875, 236.0625)" id="flowchart-J-919" class="node default default flowchart-label"><circle height="33.5" width="31.78125" r="15.890625" ry="0" rx="0" style=""></circle><g transform="translate(0, -9.25)" style="" class="label"><rect></rect><text style=""><tspan class="row" x="0" dy="1em" xml:space="preserve">10</tspan></text></g></g></g></g></g></svg>